<svg xmlns="http://www.w3.org/2000/svg" xmlns:xlink="http://www.w3.org/1999/xlink" viewBox="0 0 201 30">
    <defs>
        <path id="a" d="M0 29.792h200.78V0H0z"/>
    </defs>
    <g fill="none" fill-rule="evenodd">
        <path fill="#020302" d="M40.122 17.397c.305 1.154 1.37 1.829 3.022 1.829 1.391 0 2.24-.48 2.24-1.46 0-1.457-1.827-1.37-3.696-1.828-2.066-.5-4.63-1.459-4.63-4.68 0-3.114 2.347-4.66 5.76-4.66 3.109 0 5.327 1.263 6.174 3.985l-3.478.936c-.37-1.11-1.24-1.72-2.761-1.72-1.392 0-1.979.544-1.979 1.35 0 1.284 1.457 1.48 3.587 1.916 2.24.435 4.719 1.393 4.719 4.68 0 3.135-2.196 4.703-5.914 4.703-2.653 0-5.652-.806-6.522-4.114l3.478-.937zM60.951 13.26c-.478-1.262-.826-2.22-.847-2.242h-.066c-.022.022-.37.958-.848 2.22l-1.087 3.049h3.935l-1.087-3.027zm-4.044 6.357l-.913 2.526h-3.848l5.87-15.24h4.153l5.891 15.24h-3.913l-.913-2.526h-6.327zM79.867 13.26c-.478-1.262-.825-2.22-.847-2.242h-.066c-.021.022-.369.958-.847 2.22l-1.087 3.049h3.935l-1.088-3.027zm-4.043 6.357l-.913 2.526h-3.848l5.87-15.24h4.152l5.891 15.24h-3.912l-.914-2.526h-6.326zM96.345 10.3v11.843h-3.652V10.3H88.04V6.903h12.956V10.3zM118.743 17.636c-1.13 2.961-3.935 4.811-7.24 4.811-4.544 0-7.89-3.2-7.89-7.968 0-4.637 3.346-7.88 7.89-7.88 3.5 0 6.066 1.937 7.088 4.397l-3.608.98c-.783-1.22-2.022-1.938-3.653-1.938-2.479 0-4.044 1.829-4.044 4.485 0 2.7 1.674 4.463 4.022 4.463 2 0 3.239-1.045 3.848-2.308l3.587.958zM132.18 16.156h-5.847v5.987h-3.653V6.903h3.653v5.747h5.848V6.903h3.652v15.24h-3.652z"/>
        <mask id="b" fill="#fff">
            <use xlink:href="#a"/>
        </mask>
        <path fill="#020302" d="M140.443 22.143h3.653V6.903h-3.653zM162.012 13.26c-.479-1.262-.826-2.22-.848-2.242h-.066c-.021.022-.369.958-.847 2.22l-1.087 3.049h3.935l-1.087-3.027zm-4.044 6.357l-.913 2.526h-3.848l5.87-15.24h4.152l5.892 15.24h-3.913l-.914-2.526h-6.326zM178.819 14.196c1.347 0 2.087-.674 2.087-1.959 0-1.263-.696-2.025-2.109-2.025h-2.347v3.984h2.369zm-.739 2.918h-1.63v5.029h-3.653V6.903h5.783c3.826 0 6.065 2.003 6.065 5.16 0 2.09-1.022 3.636-2.87 4.333l3.48 5.747h-4.327l-2.848-5.03zM196.127 10.3v11.843h-3.653V10.3h-4.652V6.903h12.957V10.3z" mask="url(#b)"/>
        <path fill="#F05024" d="M21.56 7.328a20.728 20.728 0 0 0-2.39-1.595 20.8 20.8 0 0 0-2.465-1.19c-.9.076-1.825.238-2.762.486a18.754 18.754 0 0 1 4.57 1.863c1.529.87 2.87 1.904 3.997 3.032a16.17 16.17 0 0 0-.95-2.596" mask="url(#b)"/>
        <path stroke="#F05024" stroke-width=".5" d="M21.56 7.328a20.728 20.728 0 0 0-2.39-1.595 20.8 20.8 0 0 0-2.465-1.19c-.9.076-1.825.238-2.762.486a18.754 18.754 0 0 1 4.57 1.863c1.529.87 2.87 1.904 3.997 3.032a16.17 16.17 0 0 0-.95-2.596z" mask="url(#b)"/>
        <path fill="#F05024" d="M11.184 4.556a19.26 19.26 0 0 1 2.757-.898 16.867 16.867 0 0 0-3.902-.486c-.19 0-.377.007-.564.014-.512.424-.997.92-1.448 1.48.642-.105 1.315-.16 2.012-.16.375 0 .758.019 1.145.05" mask="url(#b)"/>
        <path stroke="#F05024" stroke-width=".5" d="M11.184 4.556a19.26 19.26 0 0 1 2.757-.898 16.867 16.867 0 0 0-3.902-.486c-.19 0-.377.007-.564.014-.512.424-.997.92-1.448 1.48.642-.105 1.315-.16 2.012-.16.375 0 .758.019 1.145.05z" mask="url(#b)"/>
        <path fill="#F05024" d="M27.24 14.857a13.26 13.26 0 0 1-.865 2.008c.075.453.117.902.117 1.34-.001 1.195-.275 2.318-.85 3.331-.69 1.217-1.74 2.144-3.067 2.782a8.682 8.682 0 0 1-.66.278 13.348 13.348 0 0 1-1.292 1.758c.896-.183 1.745-.46 2.527-.834 1.536-.735 2.814-1.85 3.65-3.326.696-1.225 1.023-2.589 1.023-3.989-.001-1.104-.205-2.231-.583-3.348" mask="url(#b)"/>
        <path stroke="#F05024" stroke-width=".5" d="M27.24 14.857a13.26 13.26 0 0 1-.865 2.008c.075.453.117.902.117 1.34-.001 1.195-.275 2.318-.85 3.331-.69 1.217-1.74 2.144-3.067 2.782a8.682 8.682 0 0 1-.66.278 13.348 13.348 0 0 1-1.292 1.758c.896-.183 1.745-.46 2.527-.834 1.536-.735 2.814-1.85 3.65-3.326.696-1.225 1.023-2.589 1.023-3.989-.001-1.104-.205-2.231-.583-3.348z" mask="url(#b)"/>
        <path fill="#F05024" d="M23.7 9.238c.263.895.464 1.834.6 2.805.028.041.06.082.089.123a12.976 12.976 0 0 1 1.432 2.697c.255-.674.438-1.345.542-2.004a15.27 15.27 0 0 0-.878-1.45A17.365 17.365 0 0 0 23.7 9.24" mask="url(#b)"/>
        <path stroke="#F05024" stroke-width=".5" d="M23.7 9.238c.263.895.464 1.834.6 2.805.028.041.06.082.089.123a12.976 12.976 0 0 1 1.432 2.697c.255-.674.438-1.345.542-2.004a15.27 15.27 0 0 0-.878-1.45A17.365 17.365 0 0 0 23.7 9.24z" mask="url(#b)"/>
        <path fill="#F05024" d="M4.243 20.554a19.382 19.382 0 0 1-.598-2.805c-.03-.041-.062-.082-.09-.123a12.976 12.976 0 0 1-1.433-2.697 10.128 10.128 0 0 0-.542 2.005c.262.49.552.974.879 1.449.516.75 1.117 1.476 1.784 2.17" mask="url(#b)"/>
        <path stroke="#F05024" stroke-width=".5" d="M4.243 20.554a19.382 19.382 0 0 1-.598-2.805c-.03-.041-.062-.082-.09-.123a12.976 12.976 0 0 1-1.433-2.697 10.128 10.128 0 0 0-.542 2.005c.262.49.552.974.879 1.449.516.75 1.117 1.476 1.784 2.17z" mask="url(#b)"/>
        <path fill="#F05024" d="M1.452 11.587c0-1.194.275-2.317.849-3.33.691-1.218 1.741-2.145 3.067-2.782.213-.102.434-.193.66-.28.393-.635.825-1.221 1.293-1.757-.897.183-1.746.46-2.527.834-1.536.735-2.814 1.85-3.65 3.326C.447 8.823.12 10.187.12 11.587c0 1.105.204 2.231.583 3.348a13.26 13.26 0 0 1 .864-2.007 8.307 8.307 0 0 1-.116-1.341" mask="url(#b)"/>
        <path stroke="#F05024" stroke-width=".5" d="M1.452 11.587c0-1.194.275-2.317.849-3.33.691-1.218 1.741-2.145 3.067-2.782.213-.102.434-.193.66-.28.393-.635.825-1.221 1.293-1.757-.897.183-1.746.46-2.527.834-1.536.735-2.814 1.85-3.65 3.326C.447 8.823.12 10.187.12 11.587c0 1.105.204 2.231.583 3.348a13.26 13.26 0 0 1 .864-2.007 8.307 8.307 0 0 1-.116-1.341z" mask="url(#b)"/>
        <path fill="#F05024" d="M16.76 25.236c-.919.378-1.841.674-2.758.898a16.84 16.84 0 0 0 3.903.485c.19 0 .376-.005.563-.013.513-.424.998-.919 1.449-1.48a12.53 12.53 0 0 1-2.012.16c-.375 0-.758-.019-1.145-.05" mask="url(#b)"/>
        <path stroke="#F05024" stroke-width=".5" d="M16.76 25.236c-.919.378-1.841.674-2.758.898a16.84 16.84 0 0 0 3.903.485c.19 0 .376-.005.563-.013.513-.424.998-.919 1.449-1.48a12.53 12.53 0 0 1-2.012.16c-.375 0-.758-.019-1.145-.05z" mask="url(#b)"/>
        <path fill="#F05024" d="M9.43 22.9a18.789 18.789 0 0 1-3.997-3.032c.253.921.573 1.79.95 2.596.743.572 1.537 1.11 2.39 1.596.812.461 1.637.854 2.465 1.19.9-.077 1.825-.239 2.762-.487A18.747 18.747 0 0 1 9.43 22.9" mask="url(#b)"/>
        <path stroke="#F05024" stroke-width=".5" d="M9.43 22.9a18.789 18.789 0 0 1-3.997-3.032c.253.921.573 1.79.95 2.596.743.572 1.537 1.11 2.39 1.596.812.461 1.637.854 2.465 1.19.9-.077 1.825-.239 2.762-.487A18.747 18.747 0 0 1 9.43 22.9z" mask="url(#b)"/>
        <path fill="#389ED8" d="M5.433 19.868a18.86 18.86 0 0 1-.654-4.972c0-1.75.233-3.418.65-4.948a16.207 16.207 0 0 0-1.784 2.128 20.77 20.77 0 0 0-.197 2.82c0 .976.068 1.929.196 2.853a16.13 16.13 0 0 0 1.79 2.12" mask="url(#b)"/>
        <path stroke="#389ED8" stroke-width=".5" d="M5.433 19.868a18.86 18.86 0 0 1-.654-4.972c0-1.75.233-3.418.65-4.948a16.207 16.207 0 0 0-1.784 2.128 20.77 20.77 0 0 0-.197 2.82c0 .976.068 1.929.196 2.853a16.13 16.13 0 0 0 1.79 2.12z" mask="url(#b)"/>
        <path fill="#389ED8" d="M21.56 7.328a19.328 19.328 0 0 1 2.14 1.91 16.566 16.566 0 0 0-1.8-4.072 10.158 10.158 0 0 0-2.01-.529c.624.772 1.185 1.66 1.654 2.656l.016.035" mask="url(#b)"/>
        <path stroke="#389ED8" stroke-width=".5" d="M21.56 7.328a19.328 19.328 0 0 1 2.14 1.91 16.566 16.566 0 0 0-1.8-4.072 10.158 10.158 0 0 0-2.01-.529c.624.772 1.185 1.66 1.654 2.656l.016.035z" mask="url(#b)"/>
        <path fill="#389ED8" d="M24.3 12.092a16.283 16.283 0 0 0-1.79-2.136c.421 1.536.655 3.1.655 5.005 0 1.27-.233 3.385-.65 4.915a16.09 16.09 0 0 0 1.783-2.112 17.5 17.5 0 0 0 .198-2.803c0-.636-.069-1.945-.197-2.87" mask="url(#b)"/>
        <path stroke="#389ED8" stroke-width=".5" d="M24.3 12.092a16.283 16.283 0 0 0-1.79-2.136c.421 1.536.655 3.1.655 5.005 0 1.27-.233 3.385-.65 4.915a16.09 16.09 0 0 0 1.783-2.112 17.5 17.5 0 0 0 .198-2.803c0-.636-.069-1.945-.197-2.87z" mask="url(#b)"/>
        <path fill="#389ED8" d="M10.479 2.467c1.088-.658 2.261-1.012 3.493-1.013 1.231.001 2.404.355 3.493 1.013.332.201.655.439.97.696.745.026 1.47.107 2.166.247-.735-.836-1.555-1.543-2.448-2.084C16.883.556 15.463.12 13.972.12c-1.49 0-2.911.435-4.182 1.205-.902.547-1.728 1.265-2.47 2.112a13.345 13.345 0 0 1 2.155-.252 8.49 8.49 0 0 1 1.004-.72" mask="url(#b)"/>
        <path stroke="#389ED8" stroke-width=".5" d="M10.479 2.467c1.088-.658 2.261-1.012 3.493-1.013 1.231.001 2.404.355 3.493 1.013.332.201.655.439.97.696.745.026 1.47.107 2.166.247-.735-.836-1.555-1.543-2.448-2.084C16.883.556 15.463.12 13.972.12c-1.49 0-2.911.435-4.182 1.205-.902.547-1.728 1.265-2.47 2.112a13.345 13.345 0 0 1 2.155-.252 8.49 8.49 0 0 1 1.004-.72z" mask="url(#b)"/>
        <path fill="#389ED8" d="M23.7 20.532a19.281 19.281 0 0 1-2.132 1.916 13.666 13.666 0 0 1-1.17 2.043 12.51 12.51 0 0 1-.481.636 10.151 10.151 0 0 0 1.998-.531c.3-.484.58-.992.833-1.527a17.37 17.37 0 0 0 .952-2.537" mask="url(#b)"/>
        <path stroke="#389ED8" stroke-width=".5" d="M23.7 20.532a19.281 19.281 0 0 1-2.132 1.916 13.666 13.666 0 0 1-1.17 2.043 12.51 12.51 0 0 1-.481.636 10.151 10.151 0 0 0 1.998-.531c.3-.484.58-.992.833-1.527a17.37 17.37 0 0 0 .952-2.537z" mask="url(#b)"/>
        <path fill="#389ED8" d="M6.383 22.464a19.328 19.328 0 0 1-2.14-1.91 16.558 16.558 0 0 0 1.801 4.072c.625.237 1.297.415 2.01.529A13.066 13.066 0 0 1 6.4 22.5c-.005-.012-.01-.025-.016-.036" mask="url(#b)"/>
        <path stroke="#389ED8" stroke-width=".5" d="M6.383 22.464a19.328 19.328 0 0 1-2.14-1.91 16.558 16.558 0 0 0 1.801 4.072c.625.237 1.297.415 2.01.529A13.066 13.066 0 0 1 6.4 22.5c-.005-.012-.01-.025-.016-.036z" mask="url(#b)"/>
        <path fill="#389ED8" d="M17.465 27.326c-1.089.657-2.262 1.011-3.493 1.012-1.232 0-2.405-.355-3.493-1.012a8.405 8.405 0 0 1-.97-.697 13.287 13.287 0 0 1-2.167-.247c.735.836 1.555 1.543 2.448 2.084 1.27.77 2.691 1.206 4.182 1.205 1.49 0 2.911-.435 4.181-1.205.903-.547 1.73-1.264 2.47-2.113a13.4 13.4 0 0 1-2.155.254c-.324.267-.659.51-1.003.719" mask="url(#b)"/>
        <path stroke="#389ED8" stroke-width=".5" d="M17.465 27.326c-1.089.657-2.262 1.011-3.493 1.012-1.232 0-2.405-.355-3.493-1.012a8.405 8.405 0 0 1-.97-.697 13.287 13.287 0 0 1-2.167-.247c.735.836 1.555 1.543 2.448 2.084 1.27.77 2.691 1.206 4.182 1.205 1.49 0 2.911-.435 4.181-1.205.903-.547 1.73-1.264 2.47-2.113a13.4 13.4 0 0 1-2.155.254c-.324.267-.659.51-1.003.719z" mask="url(#b)"/>
        <path fill="#389ED8" d="M4.243 9.26a19.379 19.379 0 0 1 2.133-1.916c.344-.738.737-1.422 1.17-2.042.155-.221.317-.432.481-.637a10.18 10.18 0 0 0-1.999.53c-.3.485-.58.993-.833 1.528-.374.795-.69 1.646-.952 2.536" mask="url(#b)"/>
        <path stroke="#389ED8" stroke-width=".5" d="M4.243 9.26a19.379 19.379 0 0 1 2.133-1.916c.344-.738.737-1.422 1.17-2.042.155-.221.317-.432.481-.637a10.18 10.18 0 0 0-1.999.53c-.3.485-.58.993-.833 1.528-.374.795-.69 1.646-.952 2.536z" mask="url(#b)"/>
        <path fill="#7E427D" d="M24.3 12.043a19.368 19.368 0 0 0-.6-2.805 19.331 19.331 0 0 0-2.14-1.91c.378.805.698 1.675.95 2.596.678.678 1.275 1.39 1.79 2.12" mask="url(#b)"/>
        <path stroke="#7E427D" stroke-width=".5" d="M24.3 12.043a19.368 19.368 0 0 0-.6-2.805 19.331 19.331 0 0 0-2.14-1.91c.378.805.698 1.675.95 2.596.678.678 1.275 1.39 1.79 2.12z" mask="url(#b)"/>
        <path fill="#7E427D" d="M3.645 17.749c.134.971.335 1.91.598 2.805a19.366 19.366 0 0 0 2.14 1.91 16.215 16.215 0 0 1-.95-2.596 16.161 16.161 0 0 1-1.788-2.12" mask="url(#b)"/>
        <path stroke="#7E427D" stroke-width=".5" d="M3.645 17.749c.134.971.335 1.91.598 2.805a19.366 19.366 0 0 0 2.14 1.91 16.215 16.215 0 0 1-.95-2.596 16.161 16.161 0 0 1-1.788-2.12z" mask="url(#b)"/>
        <path fill="#7E427D" d="M19.916 25.127c-.45.56-.935 1.056-1.448 1.48a13.399 13.399 0 0 0 2.155-.253c.467-.535.9-1.123 1.292-1.758-.62.238-1.29.416-1.999.53" mask="url(#b)"/>
        <path stroke="#7E427D" stroke-width=".5" d="M19.916 25.127c-.45.56-.935 1.056-1.448 1.48a13.399 13.399 0 0 0 2.155-.253c.467-.535.9-1.123 1.292-1.758-.62.238-1.29.416-1.999.53z" mask="url(#b)"/>
        <path fill="#7E427D" d="M8.027 4.665c.45-.56.936-1.055 1.449-1.48-.742.03-1.463.112-2.155.253-.468.535-.9 1.123-1.293 1.758.621-.237 1.29-.415 2-.53" mask="url(#b)"/>
        <path stroke="#7E427D" stroke-width=".5" d="M8.027 4.665c.45-.56.936-1.055 1.449-1.48-.742.03-1.463.112-2.155.253-.468.535-.9 1.123-1.293 1.758.621-.237 1.29-.415 2-.53z" mask="url(#b)"/>
        <path fill="#FFDD16" d="M18.557 22.875l.332.578-.332-.578z" mask="url(#b)"/>
        <path fill="#F5B918" d="M6.044 24.626a8.857 8.857 0 0 1-.653-.275c-1.315-.629-2.36-1.547-3.053-2.75-.587-1.023-.867-2.16-.868-3.37 0-.424.041-.858.11-1.297a13.28 13.28 0 0 1-.876-2c-.366 1.1-.564 2.21-.565 3.298 0 1.417.334 2.797 1.045 4.033.838 1.46 2.11 2.563 3.635 3.29a10.85 10.85 0 0 0 2.523.826 12.968 12.968 0 0 1-1.298-1.755" mask="url(#b)"/>
        <path stroke="#F5B918" stroke-width=".5" d="M6.044 24.626a8.857 8.857 0 0 1-.653-.275c-1.315-.629-2.36-1.547-3.053-2.75-.587-1.023-.867-2.16-.868-3.37 0-.424.041-.858.11-1.297a13.28 13.28 0 0 1-.876-2c-.366 1.1-.564 2.21-.565 3.298 0 1.417.334 2.797 1.045 4.033.838 1.46 2.11 2.563 3.635 3.29a10.85 10.85 0 0 0 2.523.826 12.968 12.968 0 0 1-1.298-1.755z" mask="url(#b)"/>
        <path fill="#F5B918" d="M21.9 5.166c.222.085.442.175.652.275 1.316.63 2.36 1.547 3.054 2.75.586 1.023.866 2.16.867 3.37 0 .424-.04.858-.11 1.298.353.658.649 1.326.877 1.998.366-1.1.564-2.209.565-3.297 0-1.417-.334-2.797-1.046-4.033-.837-1.46-2.11-2.563-3.634-3.29a10.85 10.85 0 0 0-2.524-.826 12.721 12.721 0 0 1 1.298 1.755" mask="url(#b)"/>
        <path stroke="#F5B918" stroke-width=".5" d="M21.9 5.166c.222.085.442.175.652.275 1.316.63 2.36 1.547 3.054 2.75.586 1.023.866 2.16.867 3.37 0 .424-.04.858-.11 1.298.353.658.649 1.326.877 1.998.366-1.1.564-2.209.565-3.297 0-1.417-.334-2.797-1.046-4.033-.837-1.46-2.11-2.563-3.634-3.29a10.85 10.85 0 0 0-2.524-.826 12.721 12.721 0 0 1 1.298 1.755z" mask="url(#b)"/>
        <path fill="#F5B918" d="M14.002 26.134a19.352 19.352 0 0 1-2.764-.884c-.411.035-.82.058-1.217.058-.681 0-1.339-.052-1.967-.153.453.56.94 1.052 1.455 1.474.17.006.34.012.512.012 1.285 0 2.625-.175 3.981-.507" mask="url(#b)"/>
        <path stroke="#F5B918" stroke-width=".5" d="M14.002 26.134a19.352 19.352 0 0 1-2.764-.884c-.411.035-.82.058-1.217.058-.681 0-1.339-.052-1.967-.153.453.56.94 1.052 1.455 1.474.17.006.34.012.512.012 1.285 0 2.625-.175 3.981-.507z" mask="url(#b)"/>
        <path fill="#F5B918" d="M13.941 3.658c.919.22 1.843.51 2.764.884.412-.035.82-.059 1.218-.058.68 0 1.338.053 1.967.153a10.196 10.196 0 0 0-1.456-1.474 13.76 13.76 0 0 0-.51-.012c-1.286 0-2.627.175-3.983.507" mask="url(#b)"/>
        <path stroke="#F5B918" stroke-width=".5" d="M13.941 3.658c.919.22 1.843.51 2.764.884.412-.035.82-.059 1.218-.058.68 0 1.338.053 1.967.153a10.196 10.196 0 0 0-1.456-1.474 13.76 13.76 0 0 0-.51-.012c-1.286 0-2.627.175-3.983.507z" mask="url(#b)"/>
        <path fill="#F5B918" d="M3.646 12.077c.133-.977.334-1.919.597-2.818-.67.701-1.27 1.434-1.787 2.19-.33.484-.624.979-.888 1.478.108.659.296 1.329.554 2.001a12.97 12.97 0 0 1 1.433-2.726c.028-.043.061-.083.09-.125" mask="url(#b)"/>
        <path stroke="#F5B918" stroke-width=".5" d="M3.646 12.077c.133-.977.334-1.919.597-2.818-.67.701-1.27 1.434-1.787 2.19-.33.484-.624.979-.888 1.478.108.659.296 1.329.554 2.001a12.97 12.97 0 0 1 1.433-2.726c.028-.043.061-.083.09-.125z" mask="url(#b)"/>
        <path fill="#F5B918" d="M24.389 17.59c-.03.043-.062.084-.09.125a19.39 19.39 0 0 1-.599 2.817c.67-.7 1.27-1.433 1.788-2.189.33-.484.623-.979.887-1.478a10.121 10.121 0 0 0-.554-2.002 12.994 12.994 0 0 1-1.432 2.727" mask="url(#b)"/>
        <path stroke="#F5B918" stroke-width=".5" d="M24.389 17.59c-.03.043-.062.084-.09.125a19.39 19.39 0 0 1-.599 2.817c.67-.7 1.27-1.433 1.788-2.189.33-.484.623-.979.887-1.478a10.121 10.121 0 0 0-.554-2.002 12.994 12.994 0 0 1-1.432 2.727z" mask="url(#b)"/>
        <g mask="url(#b)">
            <path fill="#F5B918" d="M19.22 24.03a20.665 20.665 0 0 0 2.347-1.582 16.25 16.25 0 0 0 .948-2.604 18.776 18.776 0 0 1-3.958 3.031A18.774 18.774 0 0 1 14 24.763c.937.242 1.862.401 2.76.473.827-.34 1.65-.739 2.46-1.205"/>
            <path stroke="#F5B918" stroke-width=".5" d="M19.22 24.03a20.665 20.665 0 0 0 2.347-1.582 16.25 16.25 0 0 0 .948-2.604 18.776 18.776 0 0 1-3.958 3.031A18.774 18.774 0 0 1 14 24.763c.937.242 1.862.401 2.76.473.827-.34 1.65-.739 2.46-1.205"/>
        </g>
        <path fill="#F5B918" d="M9.387 6.917a18.746 18.746 0 0 1 4.556-1.888 16.221 16.221 0 0 0-2.76-.473c-.827.34-1.65.739-2.46 1.205a20.684 20.684 0 0 0-2.347 1.583 16.256 16.256 0 0 0-.947 2.604 18.776 18.776 0 0 1 3.958-3.031" mask="url(#b)"/>
        <path stroke="#F5B918" stroke-width=".5" d="M9.387 6.917a18.746 18.746 0 0 1 4.556-1.888 16.221 16.221 0 0 0-2.76-.473c-.827.34-1.65.739-2.46 1.205a20.684 20.684 0 0 0-2.347 1.583 16.256 16.256 0 0 0-.947 2.604 18.776 18.776 0 0 1 3.958-3.031z" mask="url(#b)"/>
        <path fill="#E9831C" d="M16.705 4.542a19.332 19.332 0 0 0-2.764-.884c-.916.225-1.839.52-2.757.898.898.072 1.823.23 2.76.473.936-.248 1.862-.41 2.761-.487" mask="url(#b)"/>
        <path stroke="#E9831C" stroke-width=".5" d="M16.705 4.542a19.332 19.332 0 0 0-2.764-.884c-.916.225-1.839.52-2.757.898.898.072 1.823.23 2.76.473.936-.248 1.862-.41 2.761-.487z" mask="url(#b)"/>
        <path fill="#E9831C" d="M25.821 14.864c.26.672.447 1.342.554 2 .35-.66.64-1.331.865-2.007a13.302 13.302 0 0 0-.877-1.999c-.104.66-.287 1.331-.542 2.006" mask="url(#b)"/>
        <path stroke="#E9831C" stroke-width=".5" d="M25.821 14.864c.26.672.447 1.342.554 2 .35-.66.64-1.331.865-2.007a13.302 13.302 0 0 0-.877-1.999c-.104.66-.287 1.331-.542 2.006z" mask="url(#b)"/>
        <path fill="#E9831C" d="M11.238 25.25c.921.373 1.846.665 2.764.884.917-.224 1.839-.52 2.757-.898A16.221 16.221 0 0 1 14 24.762a16.15 16.15 0 0 1-2.762.488" mask="url(#b)"/>
        <path stroke="#E9831C" stroke-width=".5" d="M11.238 25.25c.921.373 1.846.665 2.764.884.917-.224 1.839-.52 2.757-.898A16.221 16.221 0 0 1 14 24.762a16.15 16.15 0 0 1-2.762.488z" mask="url(#b)"/>
        <path fill="#E9831C" d="M2.122 14.928a10.11 10.11 0 0 1-.554-2 13.22 13.22 0 0 0-.864 2.007c.228.672.523 1.34.876 1.999.104-.66.287-1.331.542-2.006" mask="url(#b)"/>
        <path stroke="#E9831C" stroke-width=".5" d="M2.122 14.928a10.11 10.11 0 0 1-.554-2 13.22 13.22 0 0 0-.864 2.007c.228.672.523 1.34.876 1.999.104-.66.287-1.331.542-2.006z" mask="url(#b)"/>
        <path fill="#00863E" d="M5.429 9.948c.252-.923.57-1.796.947-2.604a19.335 19.335 0 0 0-2.133 1.915 19.404 19.404 0 0 0-.598 2.817A16.207 16.207 0 0 1 5.43 9.948" mask="url(#b)"/>
        <path stroke="#00863E" stroke-width=".5" d="M5.429 9.948c.252-.923.57-1.796.947-2.604a19.335 19.335 0 0 0-2.133 1.915 19.404 19.404 0 0 0-.598 2.817A16.207 16.207 0 0 1 5.43 9.948z" mask="url(#b)"/>
        <path fill="#00863E" d="M19.89 4.637c.712.114 1.385.292 2.01.53-.134-.215-.27-.426-.412-.63A13.05 13.05 0 0 0 20.6 3.41a13.335 13.335 0 0 0-2.166-.247c.515.422 1.002.915 1.454 1.474" mask="url(#b)"/>
        <path stroke="#00863E" stroke-width=".5" d="M19.89 4.637c.712.114 1.385.292 2.01.53-.134-.215-.27-.426-.412-.63A13.05 13.05 0 0 0 20.6 3.41a13.335 13.335 0 0 0-2.166-.247c.515.422 1.002.915 1.454 1.474z" mask="url(#b)"/>
        <path fill="#00863E" d="M8.054 25.155a10.176 10.176 0 0 1-2.01-.53 12.895 12.895 0 0 0 1.298 1.755c.697.142 1.422.223 2.167.25a10.147 10.147 0 0 1-1.455-1.475" mask="url(#b)"/>
        <path stroke="#00863E" stroke-width=".5" d="M8.054 25.155a10.176 10.176 0 0 1-2.01-.53 12.895 12.895 0 0 0 1.298 1.755c.697.142 1.422.223 2.167.25a10.147 10.147 0 0 1-1.455-1.475z" mask="url(#b)"/>
        <path fill="#00863E" d="M22.515 19.844c-.252.923-.57 1.797-.948 2.604.776-.6 1.49-1.241 2.133-1.915a19.34 19.34 0 0 0 .598-2.818 16.17 16.17 0 0 1-1.783 2.129" mask="url(#b)"/>
        <path stroke="#00863E" stroke-width=".5" d="M22.515 19.844c-.252.923-.57 1.797-.948 2.604.776-.6 1.49-1.241 2.133-1.915a19.34 19.34 0 0 0 .598-2.818 16.17 16.17 0 0 1-1.783 2.129z" mask="url(#b)"/>
    </g>
</svg>
