<?xml version="1.0" encoding="UTF-8" standalone="no"?>
<svg
   xmlns:dc="http://purl.org/dc/elements/1.1/"
   xmlns:cc="http://creativecommons.org/ns#"
   xmlns:rdf="http://www.w3.org/1999/02/22-rdf-syntax-ns#"
   xmlns:svg="http://www.w3.org/2000/svg"
   xmlns="http://www.w3.org/2000/svg"
   xmlns:sodipodi="http://sodipodi.sourceforge.net/DTD/sodipodi-0.dtd"
   xmlns:inkscape="http://www.inkscape.org/namespaces/inkscape"
   version="1.1"
   id="Calque_3"
   x="0"
   y="0"
   viewBox="0 0 740.5 130.9"
   xml:space="preserve"
   sodipodi:docname="SINGULART-logo-colors-line-black-bg.178bc952.svg"
   inkscape:version="1.0.2-2 (e86c870879, 2021-01-15)"><metadata
     id="metadata19"><rdf:RDF><cc:Work
         rdf:about=""><dc:format>image/svg+xml</dc:format><dc:type
           rdf:resource="http://purl.org/dc/dcmitype/StillImage" /></cc:Work></rdf:RDF></metadata><defs
     id="defs17" /><sodipodi:namedview
     pagecolor="#ffffff"
     bordercolor="#666666"
     borderopacity="1"
     objecttolerance="10"
     gridtolerance="10"
     guidetolerance="10"
     inkscape:pageopacity="0"
     inkscape:pageshadow="2"
     inkscape:window-width="1920"
     inkscape:window-height="1017"
     id="namedview15"
     showgrid="false"
     inkscape:zoom="1.4962863"
     inkscape:cx="370.25"
     inkscape:cy="65.449997"
     inkscape:window-x="-8"
     inkscape:window-y="-8"
     inkscape:window-maximized="1"
     inkscape:current-layer="Calque_3" /><style
     id="style2">.st0{fill:#d1a16e}.st1{fill:#fff}</style><path
     class="st0"
     d="M84.2 57.6c.5-.9 3.2-6.3 3.3-10.1.1-3.1-.4-6.1-1.4-8.8-1.5-4.1-4.2-7.7-7.7-10.2-3.5-2.6-7.7-4.2-12.3-4.3-3.1-.1-6 .4-8.7 1.4-4.1 1.6-7.6 4.3-10.1 7.8s-4.1 7.8-4.3 12.5c-.1 2.5.3 4.9 1 7.1.5 1.7 1.3 3.3 2.1 4.8 1.3 2.3 2.9 4.4 4.7 6.5 1.8 2 3.8 4 5.9 5.9 2 1.7 3.9 3.4 5.7 5 1.3 1.2 2.6 2.4 3.7 3.6 1.7 1.7 3 3.4 3.8 4.9.4.8.7 1.5.9 2.1.2.7.3 1.3.2 1.8-.1 1.4 1 2.5 2.4 2.6 1.4.1 2.5-1 2.6-2.4 0-1-.1-2.1-.3-3.1-.4-1.7-1.3-3.3-2.3-4.9-1.6-2.3-3.6-4.6-6-6.8-2.3-2.2-4.9-4.4-7.5-6.7-1.8-1.6-3.4-3.2-4.9-4.9-2.3-2.5-4.1-5-5.3-7.5-.6-1.3-1.1-2.6-1.4-3.9-.3-1.3-.4-2.7-.4-4.1.1-2.4.7-4.7 1.6-6.8 1.4-3.1 3.7-5.7 6.6-7.5 2.8-1.8 6.2-2.8 9.8-2.6 2.4.1 4.7.7 6.7 1.6 3.1 1.4 5.6 3.8 7.4 6.6 1.8 2.9 2.7 6.3 2.6 9.9-.1 2-.9 4.9-1.7 7l3.3 3.5zm-39 16.1c-1.8 3.1-2.8 6.6-3 10.4-.1 3.1.4 6.1 1.4 8.8 1.5 4.1 4.2 7.7 7.7 10.2 3.5 2.6 7.7 4.2 12.3 4.3 3.1.1 6-.4 8.7-1.4 4.1-1.6 7.6-4.3 10.1-7.8s4.1-7.8 4.3-12.4c.1-2.5-.3-4.9-1-7.1-.5-1.7-1.3-3.3-2.1-4.8-1.3-2.3-2.9-4.4-4.7-6.5-1.8-2-3.8-4-5.9-5.9-2-1.7-3.9-3.4-5.7-5-1.3-1.2-2.6-2.4-3.7-3.6-1.7-1.7-3-3.4-3.8-4.9-.4-.8-.7-1.5-.9-2.1-.2-.7-.3-1.3-.2-1.8.1-1.4-1-2.5-2.4-2.6-1.4-.1-2.5 1-2.6 2.4 0 1 .1 2.1.3 3.1.4 1.7 1.3 3.4 2.3 4.9 1.6 2.3 3.6 4.6 6 6.8 2.3 2.2 4.9 4.4 7.5 6.7 1.8 1.6 3.4 3.2 4.9 4.9 2.3 2.5 4.1 5 5.3 7.5.6 1.3 1.1 2.6 1.4 3.9.3 1.3.4 2.7.4 4.1-.1 2.4-.7 4.7-1.6 6.8-1.4 3.1-3.7 5.7-6.6 7.5-2.8 1.8-6.2 2.8-9.8 2.6-2.4-.1-4.7-.7-6.7-1.6-3.1-1.5-5.6-3.8-7.4-6.6-1.8-2.9-2.7-6.3-2.6-9.9.1-2.4.7-4.7 1.6-6.8 0-.1.1-.2.1-.2l-3.6-3.9zm10.7-4"
     id="path4" /><path
     class="st0"
     d="M.5.7v102.2h4.6V5.5h119.5v120.7H28.3v4.7h101V.7H.5z"
     id="path6" /><path
     class="st1"
     d="M198.9 44.6c-2.6-2.1-5.8-3.1-9.8-3.1-1.6 0-3.2.2-4.8.5-1.6.4-2.9 1-4.2 1.8-1.2.8-2.2 2-2.9 3.4-.7 1.4-1.1 3.2-1.1 5.3 0 2 .5 3.6 1.6 4.8 1 1.2 2.4 2.2 4.2 3 1.7.8 3.7 1.4 5.9 1.9s4.4 1.1 6.7 1.7c2.3.6 4.5 1.3 6.7 2.1s4.2 1.9 5.9 3.3c1.7 1.4 3.1 3.1 4.2 5.2 1 2.1 1.6 4.8 1.6 8 0 3.4-.7 6.4-2.1 8.8-1.4 2.4-3.1 4.4-5.3 6-2.2 1.5-4.6 2.7-7.2 3.3-2.7.7-5.3 1-7.9 1-3.2 0-6.3-.5-9.2-1.4-2.9-.9-5.4-2.3-7.6-4.1-2.2-1.8-3.9-4.2-5.2-7.1-1.3-2.9-1.9-6.3-1.9-10.2h7.3c0 2.7.5 5.1 1.4 7 .9 2 2.2 3.6 3.7 4.8 1.5 1.3 3.3 2.2 5.4 2.8 2 .6 4.1.9 6.3.9 1.7 0 3.5-.2 5.2-.5 1.7-.4 3.3-1 4.7-1.9 1.4-.9 2.5-2.1 3.4-3.6.9-1.5 1.3-3.4 1.3-5.8 0-2.2-.5-4-1.6-5.4-1-1.4-2.4-2.5-4.2-3.4-1.7-.9-3.7-1.6-5.9-2.1s-4.4-1.1-6.7-1.7c-2.3-.6-4.5-1.2-6.7-2s-4.2-1.7-5.9-3c-1.7-1.2-3.1-2.8-4.2-4.8-1-2-1.6-4.4-1.6-7.4 0-3.3.6-6.1 1.8-8.5 1.2-2.4 2.8-4.3 4.7-5.9 2-1.5 4.2-2.7 6.7-3.4 2.5-.8 5.1-1.1 7.7-1.1 3 0 5.7.4 8.2 1.2 2.5.8 4.7 2 6.7 3.7 1.9 1.7 3.4 3.8 4.5 6.4 1.1 2.6 1.7 5.6 1.8 9.2h-7.3c-.3-4.2-1.8-7.6-4.3-9.7"
     id="path8"
     style="fill:#000000;fill-opacity:1" /><path
     fill-rule="evenodd"
     clip-rule="evenodd"
     fill="#fff"
     d="M230.7 35.8h7.7v64.6h-7.7V35.8z"
     id="path10"
     style="fill:#000000;fill-opacity:1" /><path
     class="st1"
     d="M267.4 35.8l30.3 52.4h.2V35.8h7.2v64.6h-8.4l-30-51.8h-.2v51.8h-7.3V35.8h8.2zm92.9 63.9c-3.3 1.5-6.7 2.2-10.1 2.2-4.3 0-8.1-.9-11.5-2.7-3.4-1.8-6.3-4.2-8.6-7.2-2.4-3-4.2-6.5-5.4-10.4-1.2-3.9-1.9-8-1.9-12.2 0-4.7.6-9.2 1.7-13.4 1.2-4.3 2.9-8 5.2-11.2 2.3-3.2 5.1-5.7 8.5-7.6 3.4-1.9 7.4-2.9 12-2.9 3.1 0 6.1.4 8.8 1.2 2.8.8 5.2 2.1 7.4 3.8 2.2 1.8 4 4 5.5 6.7s2.5 5.9 3 9.7h-7.7c-.4-2.5-1.1-4.6-2.1-6.4-1-1.8-2.3-3.2-3.8-4.4-1.5-1.1-3.2-2-5.1-2.6-1.9-.6-3.9-.9-6.1-.9-3.5 0-6.5.8-9 2.4-2.5 1.6-4.5 3.6-6.1 6.2-1.6 2.6-2.8 5.5-3.5 8.8-.8 3.3-1.1 6.7-1.1 10.1 0 3.4.4 6.6 1.3 9.7.9 3.1 2.1 5.9 3.8 8.2 1.7 2.4 3.7 4.3 6.2 5.7 2.4 1.4 5.3 2.1 8.5 2.1 3 0 5.7-.5 8-1.6s4.3-2.6 5.8-4.5c1.6-1.9 2.8-4.1 3.6-6.7.8-2.6 1.2-5.3 1-8.3h-18.4v-7.2h25.2v34h-4.8l-2-8.1c-2.2 3.6-5 6-8.3 7.5m74.7-4c-3.9 4.1-9.5 6.2-16.8 6.2-7.4 0-13.2-2-17.4-5.9-4.2-4-6.2-10.2-6.2-18.9V35.8h7.7v41.3c0 5.8 1.4 10.2 4.1 13.2 2.7 3 6.7 4.5 11.9 4.5 4.9 0 8.6-1.5 11.2-4.5 2.6-3 3.8-7.4 3.8-13.2V35.8h7.7v41.3c-.2 8.3-2.1 14.5-6 18.6m33.8-59.9v57.4h30.5v7.2h-38.1V35.8h7.6zm74.7 37.9l-9.6-30.1h-.2L524 73.7h19.5zm-5.3-37.9l22.5 64.6h-8.5L545.9 81h-24.4l-6.5 19.5h-7.8l22.4-64.6h8.6v-.1zm64.9 29.3c1.6-.3 3-.9 4.2-1.8 1.2-.9 2.2-2.1 2.9-3.5.7-1.5 1.1-3.4 1.1-5.7 0-3.3-.8-5.9-2.4-8-1.6-2.1-4.2-3.1-7.8-3.1h-19v22.5h16c1.7.1 3.4-.1 5-.4m-1.6-29.3c5.5 0 9.8 1.5 12.9 4.5 3.1 3 4.6 7.1 4.6 12.4 0 3.9-.8 7.4-2.4 10.3-1.6 3-4.1 5-7.6 6.1v.2c1.7.4 3 1 4.1 1.8 1 .8 1.9 1.9 2.5 3 .6 1.2 1.1 2.5 1.4 3.9.3 1.4.5 3 .7 4.5.1 1.6.2 3.2.2 4.8.1 1.6.2 3.2.4 4.8.2 1.6.5 3.1.9 4.5s1 2.7 1.8 3.8h-8.5c-.5-.7-.9-1.6-1.1-2.7-.2-1.1-.3-2.4-.4-3.8-.1-1.4-.1-2.9-.2-4.6-.1-1.6-.2-3.2-.5-4.8-.2-1.6-.5-3.1-.8-4.5-.3-1.4-.8-2.7-1.5-3.7-.7-1.1-1.6-1.9-2.7-2.5-1.1-.6-2.6-1-4.5-1h-18.7v27.6h-7.7V35.8h27.1zm28.6 7.3v-7.3h46.1v7.3H657v57.3h-7.7V43.1h-19.2z"
     id="path12"
     style="fill:#000000;fill-opacity:1" /></svg>
