<?xml version="1.0" encoding="utf-8"?>
<!-- Generator: Adobe Illustrator 19.0.0, SVG Export Plug-In . SVG Version: 6.00 Build 0)  -->
<svg version="1.1" id="Layer_1" xmlns="http://www.w3.org/2000/svg" xmlns:xlink="http://www.w3.org/1999/xlink" x="0px" y="0px"
	 viewBox="0 0 500 500" style="enable-background:new 0 0 500 500;" xml:space="preserve">
<style type="text/css">
	.st0{fill:#834995;}
</style>
<g>
	<path class="st0" d="M402,273.8c-9.7,80.1-66.9,85.1-77.5,88.6c-4.5,1.5-46.2,12.1-98.7,8.6L169,434l-0.1-72.6l-0.4-0.1
		c-76.4-21.7-73.8-103.2-73-145.9c0.9-42.7,8.7-77.8,32-101.3c41.8-38.8,128.1-33,128.1-33c72.8,0.3,107.7,22.8,115.8,30.3
		C398.3,134.9,412,191.3,402,273.8 M391.3,91.4c-9.6-9-48.2-37.7-134.3-38.1c0,0-101.5-6.3-151,40.2
		c-27.5,28.2-37.2,69.5-38.3,120.7c-1,51.2-2.3,147.1,88,173.1l0.1,0l0,39.7c0,0-0.6,16.1,9.8,19.3c12.5,4,19.8-8.2,31.8-21.4
		c6.6-7.2,15.6-17.8,22.4-25.9c61.8,5.3,109.3-6.9,114.6-8.6c12.5-4.2,83-13.4,94.5-109.3C440.6,182.1,423,119.6,391.3,91.4"/>
	<path class="st0" d="M336.2,285.8c0,0-11.6-9.9-17.2-14.1c-5.3-4-13.8-9.4-18.5-12.1c-8.5-4.8-17.2-1.8-20.8,3l-7.5,9.6
		c-3.8,4.9-9.7,4-11.2,3.7c-11-2.8-22.7-9.6-34.7-21.2c-12.1-11.7-19.5-23.9-22.1-36.6l-0.2-0.8c-0.7-5.2,0.2-7.6,2.3-11.2l0.4-0.3
		c5-4.7,14.4-10.4,15.6-15.8c3.7-9.4-12.3-29.1-14.5-32.5c0,0-11.6-15.3-15.7-18.3c-4.4-3.7-11.3-5.8-18.3-1.5l-0.4,0.3
		c-20,13.5-27.2,21.3-25.2,32.8l1,4.7c10.1,31.9,29.7,65.9,58.8,96.2c28.8,29.9,60,47.8,90.7,60.2c8,2.7,16.3,0.4,24.8-6.9l0.1-0.1
		c6.5-6.1,11.7-12.6,15.5-19.6l0-0.1C343,297.5,341.7,290.5,336.2,285.8"/>
	<path class="st0" d="M288.4,215.9c-1.2,0-2.2-1-2.3-2.2c-0.4-8.3-2.6-14.6-6.6-18.8c-4-4.2-9.9-6.5-17.7-7
		c-1.3-0.1-2.2-1.2-2.2-2.5c0.1-1.3,1.1-2.3,2.4-2.2c9,0.5,15.9,3.3,20.7,8.4c4.8,5.1,7.5,12.4,7.9,21.9c0.1,1.3-0.9,2.4-2.2,2.5
		H288.4"/>
	<path class="st0" d="M311.1,223.7L311.1,223.7c-1.3,0-2.3-1.1-2.3-2.4c0.4-15.9-4.3-29.3-13.8-39.9c-4.7-5.3-10.5-9.5-17.1-12.4
		c-6.6-3-14.4-4.8-22.9-5.4c-1.3-0.1-2.2-1.2-2.1-2.5c0.1-1.3,1.2-2.3,2.5-2.2c18.3,1.4,32.8,7.9,43.1,19.4
		c10.3,11.5,15.4,26.1,15,43.2C313.4,222.7,312.4,223.7,311.1,223.7"/>
	<path class="st0" d="M334.4,233.1c-1.3,0-2.3-1-2.3-2.3c-0.1-14-2.2-26.7-6.3-37.7c-4.1-10.9-10.2-20.5-18.2-28.6
		c-8-8-17.2-14.1-27.1-18.2c-10-4.1-21.1-6.2-33.1-6.2c-1.3,0-2.3-1.1-2.3-2.4c0-1.3,1-2.3,2.3-2.3h0c25.2,0.2,46.5,8.8,63.4,25.7
		c8.5,8.5,15,18.7,19.3,30.3c4.3,11.5,6.5,24.8,6.6,39.4C336.7,232,335.7,233,334.4,233.1L334.4,233.1z"/>
</g>
</svg>
