<?xml version="1.0" encoding="UTF-8" standalone="no"?>
<!-- Generator: Adobe Illustrator 19.0.0, SVG Export Plug-In . SVG Version: 6.00 Build 0)  -->

<svg
   xmlns:dc="http://purl.org/dc/elements/1.1/"
   xmlns:cc="http://creativecommons.org/ns#"
   xmlns:rdf="http://www.w3.org/1999/02/22-rdf-syntax-ns#"
   xmlns:svg="http://www.w3.org/2000/svg"
   xmlns="http://www.w3.org/2000/svg"
   xmlns:sodipodi="http://sodipodi.sourceforge.net/DTD/sodipodi-0.dtd"
   xmlns:inkscape="http://www.inkscape.org/namespaces/inkscape"
   version="1.1"
   id="Layer_1"
   x="0px"
   y="0px"
   viewBox="0 0 365.05423 394.05852"
   xml:space="preserve"
   inkscape:version="0.48.4 r9939"
   width="100%"
   height="100%"
   sodipodi:docname="viber.svg"><metadata
   id="metadata21"><rdf:RDF><cc:Work
       rdf:about=""><dc:format>image/svg+xml</dc:format><dc:type
         rdf:resource="http://purl.org/dc/dcmitype/StillImage" /></cc:Work></rdf:RDF></metadata><defs
   id="defs19" /><sodipodi:namedview
   pagecolor="#ffffff"
   bordercolor="#666666"
   borderopacity="1"
   objecttolerance="10"
   gridtolerance="10"
   guidetolerance="10"
   inkscape:pageopacity="0"
   inkscape:pageshadow="2"
   inkscape:window-width="640"
   inkscape:window-height="480"
   id="namedview17"
   showgrid="false"
   fit-margin-top="0"
   fit-margin-left="0"
   fit-margin-right="0"
   fit-margin-bottom="0"
   inkscape:zoom="0.472"
   inkscape:cx="182.51873"
   inkscape:cy="197.07216"
   inkscape:window-x="0"
   inkscape:window-y="0"
   inkscape:window-maximized="0"
   inkscape:current-layer="Layer_1" />
<style
   type="text/css"
   id="style3">
	.st0{fill:#834995;}
</style>
<g
   id="g5"
   transform="translate(-67.481266,-53.013644)">
	<path
   class="st0"
   d="m 402,273.8 c -9.7,80.1 -66.9,85.1 -77.5,88.6 -4.5,1.5 -46.2,12.1 -98.7,8.6 l -56.8,63 -0.1,-72.6 -0.4,-0.1 C 92.1,339.6 94.7,258.1 95.5,215.4 c 0.9,-42.7 8.7,-77.8 32,-101.3 41.8,-38.8 128.1,-33 128.1,-33 72.8,0.3 107.7,22.8 115.8,30.3 26.9,23.5 40.6,79.9 30.6,162.4 M 391.3,91.4 C 381.7,82.4 343.1,53.7 257,53.3 257,53.3 155.5,47 106,93.5 78.5,121.7 68.8,163 67.7,214.2 c -1,51.2 -2.3,147.1 88,173.1 l 0.1,0 0,39.7 c 0,0 -0.6,16.1 9.8,19.3 12.5,4 19.8,-8.2 31.8,-21.4 6.6,-7.2 15.6,-17.8 22.4,-25.9 61.8,5.3 109.3,-6.9 114.6,-8.6 12.5,-4.2 83,-13.4 94.5,-109.3 11.7,-99 -5.9,-161.5 -37.6,-189.7"
   id="path7"
   inkscape:connector-curvature="0"
   style="fill:#834995" />
	<path
   class="st0"
   d="m 336.2,285.8 c 0,0 -11.6,-9.9 -17.2,-14.1 -5.3,-4 -13.8,-9.4 -18.5,-12.1 -8.5,-4.8 -17.2,-1.8 -20.8,3 l -7.5,9.6 c -3.8,4.9 -9.7,4 -11.2,3.7 -11,-2.8 -22.7,-9.6 -34.7,-21.2 -12.1,-11.7 -19.5,-23.9 -22.1,-36.6 l -0.2,-0.8 c -0.7,-5.2 0.2,-7.6 2.3,-11.2 l 0.4,-0.3 c 5,-4.7 14.4,-10.4 15.6,-15.8 3.7,-9.4 -12.3,-29.1 -14.5,-32.5 0,0 -11.6,-15.3 -15.7,-18.3 -4.4,-3.7 -11.3,-5.8 -18.3,-1.5 l -0.4,0.3 c -20,13.5 -27.2,21.3 -25.2,32.8 l 1,4.7 c 10.1,31.9 29.7,65.9 58.8,96.2 28.8,29.9 60,47.8 90.7,60.2 8,2.7 16.3,0.4 24.8,-6.9 l 0.1,-0.1 c 6.5,-6.1 11.7,-12.6 15.5,-19.6 l 0,-0.1 c 3.9,-7.7 2.6,-14.7 -2.9,-19.4"
   id="path9"
   inkscape:connector-curvature="0"
   style="fill:#834995" />
	<path
   class="st0"
   d="m 288.4,215.9 c -1.2,0 -2.2,-1 -2.3,-2.2 -0.4,-8.3 -2.6,-14.6 -6.6,-18.8 -4,-4.2 -9.9,-6.5 -17.7,-7 -1.3,-0.1 -2.2,-1.2 -2.2,-2.5 0.1,-1.3 1.1,-2.3 2.4,-2.2 9,0.5 15.9,3.3 20.7,8.4 4.8,5.1 7.5,12.4 7.9,21.9 0.1,1.3 -0.9,2.4 -2.2,2.5 h 0"
   id="path11"
   inkscape:connector-curvature="0"
   style="fill:#834995" />
	<path
   class="st0"
   d="m 311.1,223.7 0,0 c -1.3,0 -2.3,-1.1 -2.3,-2.4 0.4,-15.9 -4.3,-29.3 -13.8,-39.9 -4.7,-5.3 -10.5,-9.5 -17.1,-12.4 -6.6,-3 -14.4,-4.8 -22.9,-5.4 -1.3,-0.1 -2.2,-1.2 -2.1,-2.5 0.1,-1.3 1.2,-2.3 2.5,-2.2 18.3,1.4 32.8,7.9 43.1,19.4 10.3,11.5 15.4,26.1 15,43.2 -0.1,1.2 -1.1,2.2 -2.4,2.2"
   id="path13"
   inkscape:connector-curvature="0"
   style="fill:#834995" />
	<path
   class="st0"
   d="m 334.4,233.1 c -1.3,0 -2.3,-1 -2.3,-2.3 -0.1,-14 -2.2,-26.7 -6.3,-37.7 -4.1,-10.9 -10.2,-20.5 -18.2,-28.6 -8,-8 -17.2,-14.1 -27.1,-18.2 -10,-4.1 -21.1,-6.2 -33.1,-6.2 -1.3,0 -2.3,-1.1 -2.3,-2.4 0,-1.3 1,-2.3 2.3,-2.3 h 0 c 25.2,0.2 46.5,8.8 63.4,25.7 8.5,8.5 15,18.7 19.3,30.3 4.3,11.5 6.5,24.8 6.6,39.4 0,1.2 -1,2.2 -2.3,2.3 l 0,0 z"
   id="path15"
   inkscape:connector-curvature="0"
   style="fill:#834995" />
</g>
</svg>