<?xml version="1.0" encoding="UTF-8" standalone="no"?>
<svg
   xmlns:dc="http://purl.org/dc/elements/1.1/"
   xmlns:cc="http://creativecommons.org/ns#"
   xmlns:rdf="http://www.w3.org/1999/02/22-rdf-syntax-ns#"
   xmlns:svg="http://www.w3.org/2000/svg"
   xmlns="http://www.w3.org/2000/svg"
   xmlns:sodipodi="http://sodipodi.sourceforge.net/DTD/sodipodi-0.dtd"
   xmlns:inkscape="http://www.inkscape.org/namespaces/inkscape"
   height="459.99799"
   version="1.1"
   viewBox="0 0 459.99701 459.99799"
   width="459.99701"
   xml:space="preserve"
   id="svg2"
   inkscape:version="0.48.4 r9939"
   sodipodi:docname="whatsapp.svg"><metadata
     id="metadata18"><rdf:RDF><cc:Work
         rdf:about=""><dc:format>image/svg+xml</dc:format><dc:type
           rdf:resource="http://purl.org/dc/dcmitype/StillImage" /></cc:Work></rdf:RDF></metadata><defs
     id="defs16" /><sodipodi:namedview
     pagecolor="#ffffff"
     bordercolor="#666666"
     borderopacity="1"
     objecttolerance="10"
     gridtolerance="10"
     guidetolerance="10"
     inkscape:pageopacity="0"
     inkscape:pageshadow="2"
     inkscape:window-width="640"
     inkscape:window-height="480"
     id="namedview14"
     showgrid="false"
     fit-margin-top="0"
     fit-margin-left="0"
     fit-margin-right="0"
     fit-margin-bottom="0"
     inkscape:zoom="0.4609375"
     inkscape:cx="229.998"
     inkscape:cy="229.999"
     inkscape:window-x="0"
     inkscape:window-y="0"
     inkscape:window-maximized="0"
     inkscape:current-layer="svg2" /><g
     id="_x33_75-whatsapp"
     transform="translate(-26.002,-26.001)"><g
       id="g5"><path
         d="M 417.103,92.845 C 374.08,49.721 316.787,26.001 255.897,26.001 130.219,26.001 27.951,128.27 27.951,253.946 c 0,40.146 10.474,79.37 30.394,113.973 l -32.343,118.08 120.852,-31.728 c 33.268,18.173 70.744,27.724 108.941,27.724 h 0.103 c 125.576,0 230.101,-102.269 230.101,-227.945 -0.001,-60.889 -25.874,-118.08 -68.896,-161.205 z"
         style="fill:#2cb742"
         id="path7"
         inkscape:connector-curvature="0" /><path
         d="m 255.897,443.593 c -34.089,0 -67.46,-9.138 -96.518,-26.388 l -6.879,-4.107 -71.67,18.789 19.099,-69.924 -4.518,-7.187 C 76.416,324.588 66.455,289.781 66.455,253.946 66.455,149.522 151.473,64.506 256,64.506 c 50.619,0 98.158,19.714 133.892,55.548 35.731,35.835 57.705,83.376 57.603,133.996 0,104.528 -87.176,189.543 -191.598,189.543 z"
         style="fill:#ffffff"
         id="path9"
         inkscape:connector-curvature="0" /><path
         d="m 359.807,301.691 c -5.647,-2.872 -33.677,-16.635 -38.914,-18.48 -5.237,-1.952 -9.035,-2.875 -12.834,2.875 -3.799,5.75 -14.683,18.48 -18.073,22.384 -3.285,3.799 -6.674,4.312 -12.321,1.437 -33.473,-16.735 -55.445,-29.878 -77.521,-67.768 -5.853,-10.062 5.854,-9.344 16.736,-31.11 1.85,-3.801 0.926,-7.086 -0.514,-9.961 -1.436,-2.875 -12.834,-30.906 -17.557,-42.304 -4.62,-11.089 -9.343,-9.549 -12.835,-9.754 -3.285,-0.206 -7.086,-0.206 -10.883,-0.206 -3.8,0 -9.96,1.438 -15.197,7.085 -5.236,5.75 -19.92,19.51 -19.92,47.541 0,28.031 20.432,55.139 23.205,58.937 2.874,3.798 40.148,61.299 97.338,86.045 36.144,15.607 50.314,16.94 68.386,14.271 10.985,-1.643 33.679,-13.759 38.401,-27.107 4.723,-13.347 4.723,-24.743 3.285,-27.105 -1.334,-2.57 -5.135,-4.006 -10.782,-6.78 z"
         style="fill:#2cb742"
         id="path11"
         inkscape:connector-curvature="0" /></g></g><g
     id="Layer_1"
     transform="translate(-26.002,-26.001)" /></svg>